<?xml version="1.0" encoding="UTF-8" standalone="no"?>
<!DOCTYPE svg PUBLIC "-//W3C//DTD SVG 1.1//EN"
 "http://www.w3.org/Graphics/SVG/1.1/DTD/svg11.dtd">
<!-- Generated by graphviz version 2.43.0 (0)
 -->
<!-- Title: %3 Pages: 1 -->
<svg width="1036pt" height="689pt"
 viewBox="0.00 0.00 1035.50 689.00" xmlns="http://www.w3.org/2000/svg" xmlns:xlink="http://www.w3.org/1999/xlink">
<g id="graph0" class="graph" transform="scale(1 1) rotate(0) translate(4 685)">
<title>%3</title>
<polygon fill="white" stroke="transparent" points="-4,4 -4,-685 1031.5,-685 1031.5,4 -4,4"/>
<!-- 0x0000000000111670 -->
<g id="node1" class="node">
<title>0x0000000000111670</title>
<polygon fill="#0d4f85" stroke="#0d4f85" points="514,-166 404,-166 404,-103 514,-103 514,-166"/>
<text text-anchor="middle" x="459" y="-154" font-family="Arial" font-size="10.00" fill="#ffffff">???</text>
<text text-anchor="middle" x="459" y="-143" font-family="Arial" font-size="10.00" fill="#ffffff">0x0000000000111670</text>
<text text-anchor="middle" x="459" y="-132" font-family="Arial" font-size="10.00" fill="#ffffff">13.78%</text>
<text text-anchor="middle" x="459" y="-121" font-family="Arial" font-size="10.00" fill="#ffffff">(0.75%)</text>
<text text-anchor="middle" x="459" y="-110" font-family="Arial" font-size="10.00" fill="#ffffff">16691500×</text>
</g>
<!-- __sincosf_fma -->
<g id="node2" class="node">
<title>__sincosf_fma</title>
<polygon fill="#0d4b84" stroke="#0d4b84" points="499,-63 419,-63 419,0 499,0 499,-63"/>
<text text-anchor="middle" x="459" y="-51" font-family="Arial" font-size="10.00" fill="#ffffff">libm&#45;2.33.so</text>
<text text-anchor="middle" x="459" y="-40" font-family="Arial" font-size="10.00" fill="#ffffff">__sincosf_fma</text>
<text text-anchor="middle" x="459" y="-29" font-family="Arial" font-size="10.00" fill="#ffffff">13.03%</text>
<text text-anchor="middle" x="459" y="-18" font-family="Arial" font-size="10.00" fill="#ffffff">(13.03%)</text>
<text text-anchor="middle" x="459" y="-7" font-family="Arial" font-size="10.00" fill="#ffffff">16691500×</text>
</g>
<!-- 0x0000000000111670&#45;&gt;__sincosf_fma -->
<g id="edge1" class="edge">
<title>0x0000000000111670&#45;&gt;__sincosf_fma</title>
<path fill="none" stroke="#0d4b84" stroke-width="0.52" d="M459,-102.92C459,-91.66 459,-78.81 459,-67.21"/>
<polygon fill="#0d4b84" stroke="#0d4b84" stroke-width="0.52" points="460.26,-66.92 459,-63.32 457.74,-66.92 460.26,-66.92"/>
<text text-anchor="middle" x="483.5" y="-86" font-family="Arial" font-size="10.00" fill="#0d4b84">13.03%</text>
<text text-anchor="middle" x="483.5" y="-75" font-family="Arial" font-size="10.00" fill="#0d4b84">16691500×</text>
</g>
<!-- 0x00000000001116b0 -->
<g id="node3" class="node">
<title>0x00000000001116b0</title>
<polygon fill="#0d1676" stroke="#0d1676" points="166,-372 56,-372 56,-309 166,-309 166,-372"/>
<text text-anchor="middle" x="111" y="-360" font-family="Arial" font-size="10.00" fill="#ffffff">???</text>
<text text-anchor="middle" x="111" y="-349" font-family="Arial" font-size="10.00" fill="#ffffff">0x00000000001116b0</text>
<text text-anchor="middle" x="111" y="-338" font-family="Arial" font-size="10.00" fill="#ffffff">2.30%</text>
<text text-anchor="middle" x="111" y="-327" font-family="Arial" font-size="10.00" fill="#ffffff">(0.00%)</text>
<text text-anchor="middle" x="111" y="-316" font-family="Arial" font-size="10.00" fill="#ffffff">16627×</text>
</g>
<!-- __memset_avx2_unaligned_erms -->
<g id="node4" class="node">
<title>__memset_avx2_unaligned_erms</title>
<polygon fill="#0d1676" stroke="#0d1676" points="162,-269 0,-269 0,-206 162,-206 162,-269"/>
<text text-anchor="middle" x="81" y="-257" font-family="Arial" font-size="10.00" fill="#ffffff">libc&#45;2.33.so</text>
<text text-anchor="middle" x="81" y="-246" font-family="Arial" font-size="10.00" fill="#ffffff">__memset_avx2_unaligned_erms</text>
<text text-anchor="middle" x="81" y="-235" font-family="Arial" font-size="10.00" fill="#ffffff">2.30%</text>
<text text-anchor="middle" x="81" y="-224" font-family="Arial" font-size="10.00" fill="#ffffff">(2.30%)</text>
<text text-anchor="middle" x="81" y="-213" font-family="Arial" font-size="10.00" fill="#ffffff">16633×</text>
</g>
<!-- 0x00000000001116b0&#45;&gt;__memset_avx2_unaligned_erms -->
<g id="edge2" class="edge">
<title>0x00000000001116b0&#45;&gt;__memset_avx2_unaligned_erms</title>
<path fill="none" stroke="#0d1676" stroke-width="0.5" d="M101.92,-308.92C98.54,-297.56 94.69,-284.59 91.22,-272.9"/>
<polygon fill="#0d1676" stroke="#0d1676" stroke-width="0.5" points="92.33,-272.33 90.16,-269.32 89.98,-273.03 92.33,-272.33"/>
<text text-anchor="middle" x="115.5" y="-292" font-family="Arial" font-size="10.00" fill="#0d1676">2.30%</text>
<text text-anchor="middle" x="115.5" y="-281" font-family="Arial" font-size="10.00" fill="#0d1676">16627×</text>
</g>
<!-- 0x00000000001117a0 -->
<g id="node5" class="node">
<title>0x00000000001117a0</title>
<polygon fill="#0d287b" stroke="#0d287b" points="281,-269 171,-269 171,-206 281,-206 281,-269"/>
<text text-anchor="middle" x="226" y="-257" font-family="Arial" font-size="10.00" fill="#ffffff">???</text>
<text text-anchor="middle" x="226" y="-246" font-family="Arial" font-size="10.00" fill="#ffffff">0x00000000001117a0</text>
<text text-anchor="middle" x="226" y="-235" font-family="Arial" font-size="10.00" fill="#ffffff">6.13%</text>
<text text-anchor="middle" x="226" y="-224" font-family="Arial" font-size="10.00" fill="#ffffff">(0.00%)</text>
<text text-anchor="middle" x="226" y="-213" font-family="Arial" font-size="10.00" fill="#ffffff">33257×</text>
</g>
<!-- __memcpy_avx_unaligned_erms -->
<g id="node6" class="node">
<title>__memcpy_avx_unaligned_erms</title>
<polygon fill="#0d297b" stroke="#0d297b" points="305.5,-166 146.5,-166 146.5,-103 305.5,-103 305.5,-166"/>
<text text-anchor="middle" x="226" y="-154" font-family="Arial" font-size="10.00" fill="#ffffff">libc&#45;2.33.so</text>
<text text-anchor="middle" x="226" y="-143" font-family="Arial" font-size="10.00" fill="#ffffff">__memcpy_avx_unaligned_erms</text>
<text text-anchor="middle" x="226" y="-132" font-family="Arial" font-size="10.00" fill="#ffffff">6.38%</text>
<text text-anchor="middle" x="226" y="-121" font-family="Arial" font-size="10.00" fill="#ffffff">(6.38%)</text>
<text text-anchor="middle" x="226" y="-110" font-family="Arial" font-size="10.00" fill="#ffffff">58205×</text>
</g>
<!-- 0x00000000001117a0&#45;&gt;__memcpy_avx_unaligned_erms -->
<g id="edge3" class="edge">
<title>0x00000000001117a0&#45;&gt;__memcpy_avx_unaligned_erms</title>
<path fill="none" stroke="#0d287b" stroke-width="0.5" d="M226,-205.92C226,-194.56 226,-181.59 226,-169.9"/>
<polygon fill="#0d287b" stroke="#0d287b" stroke-width="0.5" points="227.23,-169.82 226,-166.32 224.78,-169.82 227.23,-169.82"/>
<text text-anchor="middle" x="242.5" y="-189" font-family="Arial" font-size="10.00" fill="#0d287b">6.13%</text>
<text text-anchor="middle" x="242.5" y="-178" font-family="Arial" font-size="10.00" fill="#0d287b">33257×</text>
</g>
<!-- CAudioFileIf::readData(float**, long long&amp;) -->
<g id="node7" class="node">
<title>CAudioFileIf::readData(float**, long long&amp;)</title>
<polygon fill="#0d1174" stroke="#0d1174" points="752,-578 552,-578 552,-515 752,-515 752,-578"/>
<text text-anchor="middle" x="652" y="-566" font-family="Arial" font-size="10.00" fill="#ffffff">MUSI6106Exec</text>
<text text-anchor="middle" x="652" y="-555" font-family="Arial" font-size="10.00" fill="#ffffff">CAudioFileIf::readData(float**, long long&amp;)</text>
<text text-anchor="middle" x="652" y="-544" font-family="Arial" font-size="10.00" fill="#ffffff">1.08%</text>
<text text-anchor="middle" x="652" y="-533" font-family="Arial" font-size="10.00" fill="#ffffff">(0.01%)</text>
<text text-anchor="middle" x="652" y="-522" font-family="Arial" font-size="10.00" fill="#ffffff">8306×</text>
</g>
<!-- CAudioFileSndLib::readDataIntern(float**, long long) -->
<g id="node8" class="node">
<title>CAudioFileSndLib::readDataIntern(float**, long long)</title>
<polygon fill="#0d1174" stroke="#0d1174" points="773,-475 531,-475 531,-412 773,-412 773,-475"/>
<text text-anchor="middle" x="652" y="-463" font-family="Arial" font-size="10.00" fill="#ffffff">MUSI6106Exec</text>
<text text-anchor="middle" x="652" y="-452" font-family="Arial" font-size="10.00" fill="#ffffff">CAudioFileSndLib::readDataIntern(float**, long long)</text>
<text text-anchor="middle" x="652" y="-441" font-family="Arial" font-size="10.00" fill="#ffffff">1.07%</text>
<text text-anchor="middle" x="652" y="-430" font-family="Arial" font-size="10.00" fill="#ffffff">(0.45%)</text>
<text text-anchor="middle" x="652" y="-419" font-family="Arial" font-size="10.00" fill="#ffffff">8306×</text>
</g>
<!-- CAudioFileIf::readData(float**, long long&amp;)&#45;&gt;CAudioFileSndLib::readDataIntern(float**, long long) -->
<g id="edge4" class="edge">
<title>CAudioFileIf::readData(float**, long long&amp;)&#45;&gt;CAudioFileSndLib::readDataIntern(float**, long long)</title>
<path fill="none" stroke="#0d1174" stroke-width="0.5" d="M652,-514.92C652,-503.56 652,-490.59 652,-478.9"/>
<polygon fill="#0d1174" stroke="#0d1174" stroke-width="0.5" points="653.23,-478.82 652,-475.32 650.78,-478.82 653.23,-478.82"/>
<text text-anchor="middle" x="666" y="-498" font-family="Arial" font-size="10.00" fill="#0d1174">1.07%</text>
<text text-anchor="middle" x="666" y="-487" font-family="Arial" font-size="10.00" fill="#0d1174">8306×</text>
</g>
<!-- mus_file_read -->
<g id="node11" class="node">
<title>mus_file_read</title>
<polygon fill="#0d0f74" stroke="#0d0f74" points="719,-372 633,-372 633,-309 719,-309 719,-372"/>
<text text-anchor="middle" x="676" y="-360" font-family="Arial" font-size="10.00" fill="#ffffff">MUSI6106Exec</text>
<text text-anchor="middle" x="676" y="-349" font-family="Arial" font-size="10.00" fill="#ffffff">mus_file_read</text>
<text text-anchor="middle" x="676" y="-338" font-family="Arial" font-size="10.00" fill="#ffffff">0.62%</text>
<text text-anchor="middle" x="676" y="-327" font-family="Arial" font-size="10.00" fill="#ffffff">(0.01%)</text>
<text text-anchor="middle" x="676" y="-316" font-family="Arial" font-size="10.00" fill="#ffffff">8306×</text>
</g>
<!-- CAudioFileSndLib::readDataIntern(float**, long long)&#45;&gt;mus_file_read -->
<g id="edge6" class="edge">
<title>CAudioFileSndLib::readDataIntern(float**, long long)&#45;&gt;mus_file_read</title>
<path fill="none" stroke="#0d0f74" stroke-width="0.5" d="M659.27,-411.92C661.97,-400.56 665.05,-387.59 667.82,-375.9"/>
<polygon fill="#0d0f74" stroke="#0d0f74" stroke-width="0.5" points="669.06,-376.01 668.68,-372.32 666.67,-375.44 669.06,-376.01"/>
<text text-anchor="middle" x="681" y="-395" font-family="Arial" font-size="10.00" fill="#0d0f74">0.62%</text>
<text text-anchor="middle" x="681" y="-384" font-family="Arial" font-size="10.00" fill="#0d0f74">8306×</text>
</g>
<!-- CAudioFileIf::writeData(float**, long long) -->
<g id="node9" class="node">
<title>CAudioFileIf::writeData(float**, long long)</title>
<polygon fill="#0d1676" stroke="#0d1676" points="980,-578 784,-578 784,-515 980,-515 980,-578"/>
<text text-anchor="middle" x="882" y="-566" font-family="Arial" font-size="10.00" fill="#ffffff">MUSI6106Exec</text>
<text text-anchor="middle" x="882" y="-555" font-family="Arial" font-size="10.00" fill="#ffffff">CAudioFileIf::writeData(float**, long long)</text>
<text text-anchor="middle" x="882" y="-544" font-family="Arial" font-size="10.00" fill="#ffffff">2.22%</text>
<text text-anchor="middle" x="882" y="-533" font-family="Arial" font-size="10.00" fill="#ffffff">(0.01%)</text>
<text text-anchor="middle" x="882" y="-522" font-family="Arial" font-size="10.00" fill="#ffffff">8306×</text>
</g>
<!-- CAudioFileSndLib::writeDataIntern(float**, long long) -->
<g id="node10" class="node">
<title>CAudioFileSndLib::writeDataIntern(float**, long long)</title>
<polygon fill="#0d1676" stroke="#0d1676" points="1027.5,-475 782.5,-475 782.5,-412 1027.5,-412 1027.5,-475"/>
<text text-anchor="middle" x="905" y="-463" font-family="Arial" font-size="10.00" fill="#ffffff">MUSI6106Exec</text>
<text text-anchor="middle" x="905" y="-452" font-family="Arial" font-size="10.00" fill="#ffffff">CAudioFileSndLib::writeDataIntern(float**, long long)</text>
<text text-anchor="middle" x="905" y="-441" font-family="Arial" font-size="10.00" fill="#ffffff">2.21%</text>
<text text-anchor="middle" x="905" y="-430" font-family="Arial" font-size="10.00" fill="#ffffff">(0.64%)</text>
<text text-anchor="middle" x="905" y="-419" font-family="Arial" font-size="10.00" fill="#ffffff">8306×</text>
</g>
<!-- CAudioFileIf::writeData(float**, long long)&#45;&gt;CAudioFileSndLib::writeDataIntern(float**, long long) -->
<g id="edge5" class="edge">
<title>CAudioFileIf::writeData(float**, long long)&#45;&gt;CAudioFileSndLib::writeDataIntern(float**, long long)</title>
<path fill="none" stroke="#0d1676" stroke-width="0.5" d="M888.96,-514.92C891.55,-503.56 894.5,-490.59 897.17,-478.9"/>
<polygon fill="#0d1676" stroke="#0d1676" stroke-width="0.5" points="898.4,-479.01 897.98,-475.32 896.01,-478.46 898.4,-479.01"/>
<text text-anchor="middle" x="910" y="-498" font-family="Arial" font-size="10.00" fill="#0d1676">2.21%</text>
<text text-anchor="middle" x="910" y="-487" font-family="Arial" font-size="10.00" fill="#0d1676">8306×</text>
</g>
<!-- mus_file_write -->
<g id="node12" class="node">
<title>mus_file_write</title>
<polygon fill="#0d1375" stroke="#0d1375" points="948,-372 862,-372 862,-309 948,-309 948,-372"/>
<text text-anchor="middle" x="905" y="-360" font-family="Arial" font-size="10.00" fill="#ffffff">MUSI6106Exec</text>
<text text-anchor="middle" x="905" y="-349" font-family="Arial" font-size="10.00" fill="#ffffff">mus_file_write</text>
<text text-anchor="middle" x="905" y="-338" font-family="Arial" font-size="10.00" fill="#ffffff">1.57%</text>
<text text-anchor="middle" x="905" y="-327" font-family="Arial" font-size="10.00" fill="#ffffff">(0.00%)</text>
<text text-anchor="middle" x="905" y="-316" font-family="Arial" font-size="10.00" fill="#ffffff">8311×</text>
</g>
<!-- CAudioFileSndLib::writeDataIntern(float**, long long)&#45;&gt;mus_file_write -->
<g id="edge7" class="edge">
<title>CAudioFileSndLib::writeDataIntern(float**, long long)&#45;&gt;mus_file_write</title>
<path fill="none" stroke="#0d1375" stroke-width="0.5" d="M905,-411.92C905,-400.56 905,-387.59 905,-375.9"/>
<polygon fill="#0d1375" stroke="#0d1375" stroke-width="0.5" points="906.23,-375.82 905,-372.32 903.78,-375.82 906.23,-375.82"/>
<text text-anchor="middle" x="919" y="-395" font-family="Arial" font-size="10.00" fill="#0d1375">1.57%</text>
<text text-anchor="middle" x="919" y="-384" font-family="Arial" font-size="10.00" fill="#0d1375">8311×</text>
</g>
<!-- mus_read_any_1 -->
<g id="node20" class="node">
<title>mus_read_any_1</title>
<polygon fill="#0d0f74" stroke="#0d0f74" points="727.5,-269 636.5,-269 636.5,-206 727.5,-206 727.5,-269"/>
<text text-anchor="middle" x="682" y="-257" font-family="Arial" font-size="10.00" fill="#ffffff">MUSI6106Exec</text>
<text text-anchor="middle" x="682" y="-246" font-family="Arial" font-size="10.00" fill="#ffffff">mus_read_any_1</text>
<text text-anchor="middle" x="682" y="-235" font-family="Arial" font-size="10.00" fill="#ffffff">0.61%</text>
<text text-anchor="middle" x="682" y="-224" font-family="Arial" font-size="10.00" fill="#ffffff">(0.61%)</text>
<text text-anchor="middle" x="682" y="-213" font-family="Arial" font-size="10.00" fill="#ffffff">8306×</text>
</g>
<!-- mus_file_read&#45;&gt;mus_read_any_1 -->
<g id="edge21" class="edge">
<title>mus_file_read&#45;&gt;mus_read_any_1</title>
<path fill="none" stroke="#0d0f74" stroke-width="0.5" d="M677.82,-308.92C678.49,-297.56 679.26,-284.59 679.96,-272.9"/>
<polygon fill="#0d0f74" stroke="#0d0f74" stroke-width="0.5" points="681.18,-272.89 680.17,-269.32 678.74,-272.74 681.18,-272.89"/>
<text text-anchor="middle" x="694" y="-292" font-family="Arial" font-size="10.00" fill="#0d0f74">0.61%</text>
<text text-anchor="middle" x="694" y="-281" font-family="Arial" font-size="10.00" fill="#0d0f74">8306×</text>
</g>
<!-- mus_write_1 -->
<g id="node21" class="node">
<title>mus_write_1</title>
<polygon fill="#0d1375" stroke="#0d1375" points="948,-269 862,-269 862,-206 948,-206 948,-269"/>
<text text-anchor="middle" x="905" y="-257" font-family="Arial" font-size="10.00" fill="#ffffff">MUSI6106Exec</text>
<text text-anchor="middle" x="905" y="-246" font-family="Arial" font-size="10.00" fill="#ffffff">mus_write_1</text>
<text text-anchor="middle" x="905" y="-235" font-family="Arial" font-size="10.00" fill="#ffffff">1.57%</text>
<text text-anchor="middle" x="905" y="-224" font-family="Arial" font-size="10.00" fill="#ffffff">(1.56%)</text>
<text text-anchor="middle" x="905" y="-213" font-family="Arial" font-size="10.00" fill="#ffffff">8311×</text>
</g>
<!-- mus_file_write&#45;&gt;mus_write_1 -->
<g id="edge22" class="edge">
<title>mus_file_write&#45;&gt;mus_write_1</title>
<path fill="none" stroke="#0d1375" stroke-width="0.5" d="M905,-308.92C905,-297.56 905,-284.59 905,-272.9"/>
<polygon fill="#0d1375" stroke="#0d1375" stroke-width="0.5" points="906.23,-272.82 905,-269.32 903.78,-272.82 906.23,-272.82"/>
<text text-anchor="middle" x="919" y="-292" font-family="Arial" font-size="10.00" fill="#0d1375">1.57%</text>
<text text-anchor="middle" x="919" y="-281" font-family="Arial" font-size="10.00" fill="#0d1375">8311×</text>
</g>
<!-- CFastConv::process(float*, float const*, int) -->
<g id="node13" class="node">
<title>CFastConv::process(float*, float const*, int)</title>
<polygon fill="#fa2301" stroke="#fa2301" points="526,-578 318,-578 318,-515 526,-515 526,-578"/>
<text text-anchor="middle" x="422" y="-566" font-family="Arial" font-size="10.00" fill="#ffffff">MUSI6106Exec</text>
<text text-anchor="middle" x="422" y="-555" font-family="Arial" font-size="10.00" fill="#ffffff">CFastConv::process(float*, float const*, int)</text>
<text text-anchor="middle" x="422" y="-544" font-family="Arial" font-size="10.00" fill="#ffffff">96.54%</text>
<text text-anchor="middle" x="422" y="-533" font-family="Arial" font-size="10.00" fill="#ffffff">(0.00%)</text>
<text text-anchor="middle" x="422" y="-522" font-family="Arial" font-size="10.00" fill="#ffffff">8306×</text>
</g>
<!-- FreqConvolution::process(float*, float const*, int) -->
<g id="node14" class="node">
<title>FreqConvolution::process(float*, float const*, int)</title>
<polygon fill="#fa2301" stroke="#fa2301" points="502.5,-475 273.5,-475 273.5,-412 502.5,-412 502.5,-475"/>
<text text-anchor="middle" x="388" y="-463" font-family="Arial" font-size="10.00" fill="#ffffff">MUSI6106Exec</text>
<text text-anchor="middle" x="388" y="-452" font-family="Arial" font-size="10.00" fill="#ffffff">FreqConvolution::process(float*, float const*, int)</text>
<text text-anchor="middle" x="388" y="-441" font-family="Arial" font-size="10.00" fill="#ffffff">96.59%</text>
<text text-anchor="middle" x="388" y="-430" font-family="Arial" font-size="10.00" fill="#ffffff">(6.73%)</text>
<text text-anchor="middle" x="388" y="-419" font-family="Arial" font-size="10.00" fill="#ffffff">8307×</text>
</g>
<!-- CFastConv::process(float*, float const*, int)&#45;&gt;FreqConvolution::process(float*, float const*, int) -->
<g id="edge8" class="edge">
<title>CFastConv::process(float*, float const*, int)&#45;&gt;FreqConvolution::process(float*, float const*, int)</title>
<path fill="none" stroke="#fa2301" stroke-width="3.86" d="M411.71,-514.92C408.51,-505.42 404.93,-494.79 401.54,-484.74"/>
<polygon fill="#fa2301" stroke="#fa2301" stroke-width="3.86" points="404.75,-483.52 398.38,-475.32 398.25,-485.7 404.75,-483.52"/>
<text text-anchor="middle" x="426" y="-498" font-family="Arial" font-size="10.00" fill="#fa2301">96.53%</text>
<text text-anchor="middle" x="426" y="-487" font-family="Arial" font-size="10.00" fill="#fa2301">8306×</text>
</g>
<!-- FreqConvolution::process(float*, float const*, int)&#45;&gt;0x00000000001116b0 -->
<g id="edge13" class="edge">
<title>FreqConvolution::process(float*, float const*, int)&#45;&gt;0x00000000001116b0</title>
<path fill="none" stroke="#0d1676" stroke-width="0.5" d="M304.14,-411.92C260.79,-396.12 208.94,-377.21 169.88,-362.97"/>
<polygon fill="#0d1676" stroke="#0d1676" stroke-width="0.5" points="169.85,-361.65 166.14,-361.61 169.01,-363.96 169.85,-361.65"/>
<text text-anchor="middle" x="291.5" y="-395" font-family="Arial" font-size="10.00" fill="#0d1676">2.30%</text>
<text text-anchor="middle" x="291.5" y="-384" font-family="Arial" font-size="10.00" fill="#0d1676">16620×</text>
</g>
<!-- CFft::doFft(float*, float const*) -->
<g id="node15" class="node">
<title>CFft::doFft(float*, float const*)</title>
<polygon fill="#0aad34" stroke="#0aad34" points="400.5,-372 251.5,-372 251.5,-309 400.5,-309 400.5,-372"/>
<text text-anchor="middle" x="326" y="-360" font-family="Arial" font-size="10.00" fill="#ffffff">MUSI6106Exec</text>
<text text-anchor="middle" x="326" y="-349" font-family="Arial" font-size="10.00" fill="#ffffff">CFft::doFft(float*, float const*)</text>
<text text-anchor="middle" x="326" y="-338" font-family="Arial" font-size="10.00" fill="#ffffff">43.63%</text>
<text text-anchor="middle" x="326" y="-327" font-family="Arial" font-size="10.00" fill="#ffffff">(0.01%)</text>
<text text-anchor="middle" x="326" y="-316" font-family="Arial" font-size="10.00" fill="#ffffff">8315×</text>
</g>
<!-- FreqConvolution::process(float*, float const*, int)&#45;&gt;CFft::doFft(float*, float const*) -->
<g id="edge14" class="edge">
<title>FreqConvolution::process(float*, float const*, int)&#45;&gt;CFft::doFft(float*, float const*)</title>
<path fill="none" stroke="#0aad34" stroke-width="1.74" d="M369.23,-411.92C362.67,-401.24 355.25,-389.15 348.43,-378.03"/>
<polygon fill="#0aad34" stroke="#0aad34" stroke-width="1.74" points="350.34,-376.74 344.92,-372.32 346.4,-379.16 350.34,-376.74"/>
<text text-anchor="middle" x="380" y="-395" font-family="Arial" font-size="10.00" fill="#0aad34">43.61%</text>
<text text-anchor="middle" x="380" y="-384" font-family="Arial" font-size="10.00" fill="#0aad34">8310×</text>
</g>
<!-- CFft::doInvFft(float*, float const*) -->
<g id="node17" class="node">
<title>CFft::doInvFft(float*, float const*)</title>
<polygon fill="#0aad33" stroke="#0aad33" points="572,-372 410,-372 410,-309 572,-309 572,-372"/>
<text text-anchor="middle" x="491" y="-360" font-family="Arial" font-size="10.00" fill="#ffffff">MUSI6106Exec</text>
<text text-anchor="middle" x="491" y="-349" font-family="Arial" font-size="10.00" fill="#ffffff">CFft::doInvFft(float*, float const*)</text>
<text text-anchor="middle" x="491" y="-338" font-family="Arial" font-size="10.00" fill="#ffffff">43.71%</text>
<text text-anchor="middle" x="491" y="-327" font-family="Arial" font-size="10.00" fill="#ffffff">(0.01%)</text>
<text text-anchor="middle" x="491" y="-316" font-family="Arial" font-size="10.00" fill="#ffffff">8310×</text>
</g>
<!-- FreqConvolution::process(float*, float const*, int)&#45;&gt;CFft::doInvFft(float*, float const*) -->
<g id="edge15" class="edge">
<title>FreqConvolution::process(float*, float const*, int)&#45;&gt;CFft::doInvFft(float*, float const*)</title>
<path fill="none" stroke="#0aad33" stroke-width="1.75" d="M419.18,-411.92C430.37,-400.95 443.09,-388.48 454.68,-377.12"/>
<polygon fill="#0aad33" stroke="#0aad33" stroke-width="1.75" points="456.47,-378.59 459.57,-372.32 453.24,-375.29 456.47,-378.59"/>
<text text-anchor="middle" x="466" y="-395" font-family="Arial" font-size="10.00" fill="#0aad33">43.71%</text>
<text text-anchor="middle" x="466" y="-384" font-family="Arial" font-size="10.00" fill="#0aad33">8310×</text>
</g>
<!-- CFft::doFft(float*, float const*)&#45;&gt;0x00000000001117a0 -->
<g id="edge9" class="edge">
<title>CFft::doFft(float*, float const*)&#45;&gt;0x00000000001117a0</title>
<path fill="none" stroke="#0d1a77" stroke-width="0.5" d="M295.73,-308.92C284.18,-297.26 270.97,-283.92 259.17,-272"/>
<polygon fill="#0d1a77" stroke="#0d1a77" stroke-width="0.5" points="259.85,-270.95 256.52,-269.32 258.11,-272.67 259.85,-270.95"/>
<text text-anchor="middle" x="301.5" y="-292" font-family="Arial" font-size="10.00" fill="#0d1a77">3.07%</text>
<text text-anchor="middle" x="301.5" y="-281" font-family="Arial" font-size="10.00" fill="#0d1a77">16630×</text>
</g>
<!-- LaszloFft::realfft_split(float*, long) -->
<g id="node16" class="node">
<title>LaszloFft::realfft_split(float*, long)</title>
<polygon fill="#0ba946" stroke="#0ba946" points="453.5,-269 290.5,-269 290.5,-206 453.5,-206 453.5,-269"/>
<text text-anchor="middle" x="372" y="-257" font-family="Arial" font-size="10.00" fill="#ffffff">MUSI6106Exec</text>
<text text-anchor="middle" x="372" y="-246" font-family="Arial" font-size="10.00" fill="#ffffff">LaszloFft::realfft_split(float*, long)</text>
<text text-anchor="middle" x="372" y="-235" font-family="Arial" font-size="10.00" fill="#ffffff">40.56%</text>
<text text-anchor="middle" x="372" y="-224" font-family="Arial" font-size="10.00" fill="#ffffff">(33.66%)</text>
<text text-anchor="middle" x="372" y="-213" font-family="Arial" font-size="10.00" fill="#ffffff">8315×</text>
</g>
<!-- CFft::doFft(float*, float const*)&#45;&gt;LaszloFft::realfft_split(float*, long) -->
<g id="edge10" class="edge">
<title>CFft::doFft(float*, float const*)&#45;&gt;LaszloFft::realfft_split(float*, long)</title>
<path fill="none" stroke="#0ba946" stroke-width="1.62" d="M339.93,-308.92C344.75,-298.34 350.2,-286.37 355.22,-275.34"/>
<polygon fill="#0ba946" stroke="#0ba946" stroke-width="1.62" points="357.35,-276.07 357.96,-269.32 353.27,-274.22 357.35,-276.07"/>
<text text-anchor="middle" x="371" y="-292" font-family="Arial" font-size="10.00" fill="#0ba946">40.56%</text>
<text text-anchor="middle" x="371" y="-281" font-family="Arial" font-size="10.00" fill="#0ba946">8315×</text>
</g>
<!-- LaszloFft::realfft_split(float*, long)&#45;&gt;0x0000000000111670 -->
<g id="edge17" class="edge">
<title>LaszloFft::realfft_split(float*, long)&#45;&gt;0x0000000000111670</title>
<path fill="none" stroke="#0d2b7c" stroke-width="0.5" d="M398.34,-205.92C408.38,-194.26 419.88,-180.92 430.14,-169"/>
<polygon fill="#0d2b7c" stroke="#0d2b7c" stroke-width="0.5" points="431.09,-169.77 432.45,-166.32 429.24,-168.17 431.09,-169.77"/>
<text text-anchor="middle" x="445.5" y="-189" font-family="Arial" font-size="10.00" fill="#0d2b7c">6.89%</text>
<text text-anchor="middle" x="445.5" y="-178" font-family="Arial" font-size="10.00" fill="#0d2b7c">8348260×</text>
</g>
<!-- CFft::doInvFft(float*, float const*)&#45;&gt;0x00000000001117a0 -->
<g id="edge11" class="edge">
<title>CFft::doInvFft(float*, float const*)&#45;&gt;0x00000000001117a0</title>
<path fill="none" stroke="#0d1a77" stroke-width="0.5" d="M450.37,-308.85C432.73,-297.15 411.26,-284.97 390,-278 345.91,-263.55 330.61,-281.75 286,-269 285.61,-268.89 285.21,-268.77 284.82,-268.66"/>
<polygon fill="#0d1a77" stroke="#0d1a77" stroke-width="0.5" points="284.97,-267.42 281.26,-267.53 284.23,-269.75 284.97,-267.42"/>
<text text-anchor="middle" x="450.5" y="-292" font-family="Arial" font-size="10.00" fill="#0d1a77">3.07%</text>
<text text-anchor="middle" x="450.5" y="-281" font-family="Arial" font-size="10.00" fill="#0d1a77">16620×</text>
</g>
<!-- LaszloFft::irealfft_split(float*, long) -->
<g id="node18" class="node">
<title>LaszloFft::irealfft_split(float*, long)</title>
<polygon fill="#0ba946" stroke="#0ba946" points="627.5,-269 462.5,-269 462.5,-206 627.5,-206 627.5,-269"/>
<text text-anchor="middle" x="545" y="-257" font-family="Arial" font-size="10.00" fill="#ffffff">MUSI6106Exec</text>
<text text-anchor="middle" x="545" y="-246" font-family="Arial" font-size="10.00" fill="#ffffff">LaszloFft::irealfft_split(float*, long)</text>
<text text-anchor="middle" x="545" y="-235" font-family="Arial" font-size="10.00" fill="#ffffff">40.64%</text>
<text text-anchor="middle" x="545" y="-224" font-family="Arial" font-size="10.00" fill="#ffffff">(33.75%)</text>
<text text-anchor="middle" x="545" y="-213" font-family="Arial" font-size="10.00" fill="#ffffff">8310×</text>
</g>
<!-- CFft::doInvFft(float*, float const*)&#45;&gt;LaszloFft::irealfft_split(float*, long) -->
<g id="edge12" class="edge">
<title>CFft::doInvFft(float*, float const*)&#45;&gt;LaszloFft::irealfft_split(float*, long)</title>
<path fill="none" stroke="#0ba946" stroke-width="1.63" d="M507.35,-308.92C513.06,-298.24 519.52,-286.15 525.47,-275.03"/>
<polygon fill="#0ba946" stroke="#0ba946" stroke-width="1.63" points="527.48,-276.02 528.52,-269.32 523.53,-273.91 527.48,-276.02"/>
<text text-anchor="middle" x="540" y="-292" font-family="Arial" font-size="10.00" fill="#0ba946">40.64%</text>
<text text-anchor="middle" x="540" y="-281" font-family="Arial" font-size="10.00" fill="#0ba946">8310×</text>
</g>
<!-- LaszloFft::irealfft_split(float*, long)&#45;&gt;0x0000000000111670 -->
<g id="edge16" class="edge">
<title>LaszloFft::irealfft_split(float*, long)&#45;&gt;0x0000000000111670</title>
<path fill="none" stroke="#0d2b7c" stroke-width="0.5" d="M518.96,-205.92C509.04,-194.26 497.67,-180.92 487.52,-169"/>
<polygon fill="#0d2b7c" stroke="#0d2b7c" stroke-width="0.5" points="488.45,-168.19 485.24,-166.32 486.58,-169.78 488.45,-168.19"/>
<text text-anchor="middle" x="531.5" y="-189" font-family="Arial" font-size="10.00" fill="#0d2b7c">6.89%</text>
<text text-anchor="middle" x="531.5" y="-178" font-family="Arial" font-size="10.00" fill="#0d2b7c">8343240×</text>
</g>
<!-- main -->
<g id="node19" class="node">
<title>main</title>
<polygon fill="#ff0100" stroke="#ff0100" points="695,-681 609,-681 609,-618 695,-618 695,-681"/>
<text text-anchor="middle" x="652" y="-669" font-family="Arial" font-size="10.00" fill="#ffffff">MUSI6106Exec</text>
<text text-anchor="middle" x="652" y="-658" font-family="Arial" font-size="10.00" fill="#ffffff">main</text>
<text text-anchor="middle" x="652" y="-647" font-family="Arial" font-size="10.00" fill="#ffffff">99.95%</text>
<text text-anchor="middle" x="652" y="-636" font-family="Arial" font-size="10.00" fill="#ffffff">(0.00%)</text>
<text text-anchor="middle" x="652" y="-625" font-family="Arial" font-size="10.00" fill="#ffffff">1×</text>
</g>
<!-- main&#45;&gt;CAudioFileIf::readData(float**, long long&amp;) -->
<g id="edge18" class="edge">
<title>main&#45;&gt;CAudioFileIf::readData(float**, long long&amp;)</title>
<path fill="none" stroke="#0d1174" stroke-width="0.5" d="M652,-617.92C652,-606.56 652,-593.59 652,-581.9"/>
<polygon fill="#0d1174" stroke="#0d1174" stroke-width="0.5" points="653.23,-581.82 652,-578.32 650.78,-581.82 653.23,-581.82"/>
<text text-anchor="middle" x="666" y="-601" font-family="Arial" font-size="10.00" fill="#0d1174">1.08%</text>
<text text-anchor="middle" x="666" y="-590" font-family="Arial" font-size="10.00" fill="#0d1174">8306×</text>
</g>
<!-- main&#45;&gt;CAudioFileIf::writeData(float**, long long) -->
<g id="edge19" class="edge">
<title>main&#45;&gt;CAudioFileIf::writeData(float**, long long)</title>
<path fill="none" stroke="#0d1676" stroke-width="0.5" d="M695.26,-629.5C727.15,-615.5 771.31,-596.11 808.67,-579.7"/>
<polygon fill="#0d1676" stroke="#0d1676" stroke-width="0.5" points="809.55,-580.65 812.26,-578.12 808.57,-578.41 809.55,-580.65"/>
<text text-anchor="middle" x="802" y="-601" font-family="Arial" font-size="10.00" fill="#0d1676">2.22%</text>
<text text-anchor="middle" x="802" y="-590" font-family="Arial" font-size="10.00" fill="#0d1676">8306×</text>
</g>
<!-- main&#45;&gt;CFastConv::process(float*, float const*, int) -->
<g id="edge20" class="edge">
<title>main&#45;&gt;CFastConv::process(float*, float const*, int)</title>
<path fill="none" stroke="#fa2301" stroke-width="3.86" d="M608.74,-629.5C578.39,-616.17 536.94,-597.97 500.8,-582.1"/>
<polygon fill="#fa2301" stroke="#fa2301" stroke-width="3.86" points="502.09,-578.92 491.74,-578.12 499.33,-585.2 502.09,-578.92"/>
<text text-anchor="middle" x="575" y="-601" font-family="Arial" font-size="10.00" fill="#fa2301">96.54%</text>
<text text-anchor="middle" x="575" y="-590" font-family="Arial" font-size="10.00" fill="#fa2301">8306×</text>
</g>
</g>
</svg>
