<?xml version="1.0" encoding="UTF-8" standalone="no"?>
<!DOCTYPE svg PUBLIC "-//W3C//DTD SVG 1.1//EN"
 "http://www.w3.org/Graphics/SVG/1.1/DTD/svg11.dtd">
<!-- Generated by graphviz version 2.43.0 (0)
 -->
<!-- Title: %3 Pages: 1 -->
<svg width="1200pt" height="730pt"
 viewBox="0.00 0.00 1200.00 730.00" xmlns="http://www.w3.org/2000/svg" xmlns:xlink="http://www.w3.org/1999/xlink">
<g id="graph0" class="graph" transform="scale(1 1) rotate(0) translate(4 726)">
<title>%3</title>
<polygon fill="white" stroke="transparent" points="-4,4 -4,-726 1196,-726 1196,4 -4,4"/>
<!-- 0x00000000001116a0 -->
<g id="node1" class="node">
<title>0x00000000001116a0</title>
<polygon fill="#0d3e80" stroke="#0d3e80" points="224.5,-166 114.5,-166 114.5,-103 224.5,-103 224.5,-166"/>
<text text-anchor="middle" x="169.5" y="-154" font-family="Arial" font-size="10.00" fill="#ffffff">???</text>
<text text-anchor="middle" x="169.5" y="-143" font-family="Arial" font-size="10.00" fill="#ffffff">0x00000000001116a0</text>
<text text-anchor="middle" x="169.5" y="-132" font-family="Arial" font-size="10.00" fill="#ffffff">10.65%</text>
<text text-anchor="middle" x="169.5" y="-121" font-family="Arial" font-size="10.00" fill="#ffffff">(0.58%)</text>
<text text-anchor="middle" x="169.5" y="-110" font-family="Arial" font-size="10.00" fill="#ffffff">16691500×</text>
</g>
<!-- __sincosf_fma -->
<g id="node2" class="node">
<title>__sincosf_fma</title>
<polygon fill="#0d3b80" stroke="#0d3b80" points="209.5,-63 129.5,-63 129.5,0 209.5,0 209.5,-63"/>
<text text-anchor="middle" x="169.5" y="-51" font-family="Arial" font-size="10.00" fill="#ffffff">libm&#45;2.33.so</text>
<text text-anchor="middle" x="169.5" y="-40" font-family="Arial" font-size="10.00" fill="#ffffff">__sincosf_fma</text>
<text text-anchor="middle" x="169.5" y="-29" font-family="Arial" font-size="10.00" fill="#ffffff">10.07%</text>
<text text-anchor="middle" x="169.5" y="-18" font-family="Arial" font-size="10.00" fill="#ffffff">(10.07%)</text>
<text text-anchor="middle" x="169.5" y="-7" font-family="Arial" font-size="10.00" fill="#ffffff">16691500×</text>
</g>
<!-- 0x00000000001116a0&#45;&gt;__sincosf_fma -->
<g id="edge1" class="edge">
<title>0x00000000001116a0&#45;&gt;__sincosf_fma</title>
<path fill="none" stroke="#0d3b80" stroke-width="0.5" d="M169.5,-102.92C169.5,-91.56 169.5,-78.59 169.5,-66.9"/>
<polygon fill="#0d3b80" stroke="#0d3b80" stroke-width="0.5" points="170.73,-66.82 169.5,-63.32 168.28,-66.82 170.73,-66.82"/>
<text text-anchor="middle" x="194" y="-86" font-family="Arial" font-size="10.00" fill="#0d3b80">10.07%</text>
<text text-anchor="middle" x="194" y="-75" font-family="Arial" font-size="10.00" fill="#0d3b80">16691500×</text>
</g>
<!-- 0x00000000001116e0 -->
<g id="node3" class="node">
<title>0x00000000001116e0</title>
<polygon fill="#0d1c77" stroke="#0d1c77" points="840.5,-413 730.5,-413 730.5,-350 840.5,-350 840.5,-413"/>
<text text-anchor="middle" x="785.5" y="-401" font-family="Arial" font-size="10.00" fill="#ffffff">???</text>
<text text-anchor="middle" x="785.5" y="-390" font-family="Arial" font-size="10.00" fill="#ffffff">0x00000000001116e0</text>
<text text-anchor="middle" x="785.5" y="-379" font-family="Arial" font-size="10.00" fill="#ffffff">3.55%</text>
<text text-anchor="middle" x="785.5" y="-368" font-family="Arial" font-size="10.00" fill="#ffffff">(0.00%)</text>
<text text-anchor="middle" x="785.5" y="-357" font-family="Arial" font-size="10.00" fill="#ffffff">24940×</text>
</g>
<!-- __memset_avx2_unaligned_erms -->
<g id="node4" class="node">
<title>__memset_avx2_unaligned_erms</title>
<polygon fill="#0d1c77" stroke="#0d1c77" points="868.5,-269 706.5,-269 706.5,-206 868.5,-206 868.5,-269"/>
<text text-anchor="middle" x="787.5" y="-257" font-family="Arial" font-size="10.00" fill="#ffffff">libc&#45;2.33.so</text>
<text text-anchor="middle" x="787.5" y="-246" font-family="Arial" font-size="10.00" fill="#ffffff">__memset_avx2_unaligned_erms</text>
<text text-anchor="middle" x="787.5" y="-235" font-family="Arial" font-size="10.00" fill="#ffffff">3.55%</text>
<text text-anchor="middle" x="787.5" y="-224" font-family="Arial" font-size="10.00" fill="#ffffff">(3.55%)</text>
<text text-anchor="middle" x="787.5" y="-213" font-family="Arial" font-size="10.00" fill="#ffffff">24946×</text>
</g>
<!-- 0x00000000001116e0&#45;&gt;__memset_avx2_unaligned_erms -->
<g id="edge2" class="edge">
<title>0x00000000001116e0&#45;&gt;__memset_avx2_unaligned_erms</title>
<path fill="none" stroke="#0d1c77" stroke-width="0.5" d="M785.93,-349.69C786.25,-327.08 786.69,-296.36 787.01,-272.95"/>
<polygon fill="#0d1c77" stroke="#0d1c77" stroke-width="0.5" points="788.24,-272.77 787.07,-269.25 785.79,-272.73 788.24,-272.77"/>
<text text-anchor="middle" x="804" y="-312.5" font-family="Arial" font-size="10.00" fill="#0d1c77">3.55%</text>
<text text-anchor="middle" x="804" y="-301.5" font-family="Arial" font-size="10.00" fill="#0d1c77">24940×</text>
</g>
<!-- 0x00000000001117d0 -->
<g id="node5" class="node">
<title>0x00000000001117d0</title>
<polygon fill="#0d2d7c" stroke="#0d2d7c" points="515.5,-269 405.5,-269 405.5,-206 515.5,-206 515.5,-269"/>
<text text-anchor="middle" x="460.5" y="-257" font-family="Arial" font-size="10.00" fill="#ffffff">???</text>
<text text-anchor="middle" x="460.5" y="-246" font-family="Arial" font-size="10.00" fill="#ffffff">0x00000000001117d0</text>
<text text-anchor="middle" x="460.5" y="-235" font-family="Arial" font-size="10.00" fill="#ffffff">7.24%</text>
<text text-anchor="middle" x="460.5" y="-224" font-family="Arial" font-size="10.00" fill="#ffffff">(0.00%)</text>
<text text-anchor="middle" x="460.5" y="-213" font-family="Arial" font-size="10.00" fill="#ffffff">74810×</text>
</g>
<!-- __memcpy_avx_unaligned_erms -->
<g id="node6" class="node">
<title>__memcpy_avx_unaligned_erms</title>
<polygon fill="#0c5887" stroke="#0c5887" points="634,-166 475,-166 475,-103 634,-103 634,-166"/>
<text text-anchor="middle" x="554.5" y="-154" font-family="Arial" font-size="10.00" fill="#ffffff">libc&#45;2.33.so</text>
<text text-anchor="middle" x="554.5" y="-143" font-family="Arial" font-size="10.00" fill="#ffffff">__memcpy_avx_unaligned_erms</text>
<text text-anchor="middle" x="554.5" y="-132" font-family="Arial" font-size="10.00" fill="#ffffff">15.53%</text>
<text text-anchor="middle" x="554.5" y="-121" font-family="Arial" font-size="10.00" fill="#ffffff">(15.53%)</text>
<text text-anchor="middle" x="554.5" y="-110" font-family="Arial" font-size="10.00" fill="#ffffff">132989×</text>
</g>
<!-- 0x00000000001117d0&#45;&gt;__memcpy_avx_unaligned_erms -->
<g id="edge3" class="edge">
<title>0x00000000001117d0&#45;&gt;__memcpy_avx_unaligned_erms</title>
<path fill="none" stroke="#0d2d7c" stroke-width="0.5" d="M488.96,-205.92C499.81,-194.26 512.23,-180.92 523.32,-169"/>
<polygon fill="#0d2d7c" stroke="#0d2d7c" stroke-width="0.5" points="524.33,-169.72 525.81,-166.32 522.53,-168.05 524.33,-169.72"/>
<text text-anchor="middle" x="533" y="-189" font-family="Arial" font-size="10.00" fill="#0d2d7c">7.24%</text>
<text text-anchor="middle" x="533" y="-178" font-family="Arial" font-size="10.00" fill="#0d2d7c">74810×</text>
</g>
<!-- 0x0000000000111a20 -->
<g id="node7" class="node">
<title>0x0000000000111a20</title>
<polygon fill="#0d327d" stroke="#0d327d" points="773.5,-341 663.5,-341 663.5,-278 773.5,-278 773.5,-341"/>
<text text-anchor="middle" x="718.5" y="-329" font-family="Arial" font-size="10.00" fill="#ffffff">???</text>
<text text-anchor="middle" x="718.5" y="-318" font-family="Arial" font-size="10.00" fill="#ffffff">0x0000000000111a20</text>
<text text-anchor="middle" x="718.5" y="-307" font-family="Arial" font-size="10.00" fill="#ffffff">8.29%</text>
<text text-anchor="middle" x="718.5" y="-296" font-family="Arial" font-size="10.00" fill="#ffffff">(0.00%)</text>
<text text-anchor="middle" x="718.5" y="-285" font-family="Arial" font-size="10.00" fill="#ffffff">58170×</text>
</g>
<!-- 0x0000000000111a20&#45;&gt;__memcpy_avx_unaligned_erms -->
<g id="edge4" class="edge">
<title>0x0000000000111a20&#45;&gt;__memcpy_avx_unaligned_erms</title>
<path fill="none" stroke="#0d327d" stroke-width="0.5" d="M678.33,-277.92C674.93,-274.99 671.61,-271.99 668.5,-269 635.66,-237.39 602.29,-197.15 580.21,-169.16"/>
<polygon fill="#0d327d" stroke="#0d327d" stroke-width="0.5" points="580.97,-168.14 577.84,-166.15 579.04,-169.65 580.97,-168.14"/>
<text text-anchor="middle" x="685" y="-240.5" font-family="Arial" font-size="10.00" fill="#0d327d">8.29%</text>
<text text-anchor="middle" x="685" y="-229.5" font-family="Arial" font-size="10.00" fill="#0d327d">58170×</text>
</g>
<!-- CAudioFileIf::readData(float**, long long&amp;) -->
<g id="node8" class="node">
<title>CAudioFileIf::readData(float**, long long&amp;)</title>
<polygon fill="#0d1074" stroke="#0d1074" points="916.5,-619 716.5,-619 716.5,-556 916.5,-556 916.5,-619"/>
<text text-anchor="middle" x="816.5" y="-607" font-family="Arial" font-size="10.00" fill="#ffffff">MUSI6106Exec</text>
<text text-anchor="middle" x="816.5" y="-596" font-family="Arial" font-size="10.00" fill="#ffffff">CAudioFileIf::readData(float**, long long&amp;)</text>
<text text-anchor="middle" x="816.5" y="-585" font-family="Arial" font-size="10.00" fill="#ffffff">0.83%</text>
<text text-anchor="middle" x="816.5" y="-574" font-family="Arial" font-size="10.00" fill="#ffffff">(0.01%)</text>
<text text-anchor="middle" x="816.5" y="-563" font-family="Arial" font-size="10.00" fill="#ffffff">8306×</text>
</g>
<!-- CAudioFileSndLib::readDataIntern(float**, long long) -->
<g id="node9" class="node">
<title>CAudioFileSndLib::readDataIntern(float**, long long)</title>
<polygon fill="#0d1074" stroke="#0d1074" points="937.5,-516 695.5,-516 695.5,-453 937.5,-453 937.5,-516"/>
<text text-anchor="middle" x="816.5" y="-504" font-family="Arial" font-size="10.00" fill="#ffffff">MUSI6106Exec</text>
<text text-anchor="middle" x="816.5" y="-493" font-family="Arial" font-size="10.00" fill="#ffffff">CAudioFileSndLib::readDataIntern(float**, long long)</text>
<text text-anchor="middle" x="816.5" y="-482" font-family="Arial" font-size="10.00" fill="#ffffff">0.82%</text>
<text text-anchor="middle" x="816.5" y="-471" font-family="Arial" font-size="10.00" fill="#ffffff">(0.34%)</text>
<text text-anchor="middle" x="816.5" y="-460" font-family="Arial" font-size="10.00" fill="#ffffff">8306×</text>
</g>
<!-- CAudioFileIf::readData(float**, long long&amp;)&#45;&gt;CAudioFileSndLib::readDataIntern(float**, long long) -->
<g id="edge5" class="edge">
<title>CAudioFileIf::readData(float**, long long&amp;)&#45;&gt;CAudioFileSndLib::readDataIntern(float**, long long)</title>
<path fill="none" stroke="#0d1074" stroke-width="0.5" d="M816.5,-555.92C816.5,-544.56 816.5,-531.59 816.5,-519.9"/>
<polygon fill="#0d1074" stroke="#0d1074" stroke-width="0.5" points="817.73,-519.82 816.5,-516.32 815.28,-519.82 817.73,-519.82"/>
<text text-anchor="middle" x="830.5" y="-539" font-family="Arial" font-size="10.00" fill="#0d1074">0.82%</text>
<text text-anchor="middle" x="830.5" y="-528" font-family="Arial" font-size="10.00" fill="#0d1074">8306×</text>
</g>
<!-- CAudioFileIf::writeData(float**, long long) -->
<g id="node10" class="node">
<title>CAudioFileIf::writeData(float**, long long)</title>
<polygon fill="#0d1475" stroke="#0d1475" points="1144.5,-619 948.5,-619 948.5,-556 1144.5,-556 1144.5,-619"/>
<text text-anchor="middle" x="1046.5" y="-607" font-family="Arial" font-size="10.00" fill="#ffffff">MUSI6106Exec</text>
<text text-anchor="middle" x="1046.5" y="-596" font-family="Arial" font-size="10.00" fill="#ffffff">CAudioFileIf::writeData(float**, long long)</text>
<text text-anchor="middle" x="1046.5" y="-585" font-family="Arial" font-size="10.00" fill="#ffffff">1.72%</text>
<text text-anchor="middle" x="1046.5" y="-574" font-family="Arial" font-size="10.00" fill="#ffffff">(0.01%)</text>
<text text-anchor="middle" x="1046.5" y="-563" font-family="Arial" font-size="10.00" fill="#ffffff">8306×</text>
</g>
<!-- CAudioFileSndLib::writeDataIntern(float**, long long) -->
<g id="node11" class="node">
<title>CAudioFileSndLib::writeDataIntern(float**, long long)</title>
<polygon fill="#0d1475" stroke="#0d1475" points="1192,-516 947,-516 947,-453 1192,-453 1192,-516"/>
<text text-anchor="middle" x="1069.5" y="-504" font-family="Arial" font-size="10.00" fill="#ffffff">MUSI6106Exec</text>
<text text-anchor="middle" x="1069.5" y="-493" font-family="Arial" font-size="10.00" fill="#ffffff">CAudioFileSndLib::writeDataIntern(float**, long long)</text>
<text text-anchor="middle" x="1069.5" y="-482" font-family="Arial" font-size="10.00" fill="#ffffff">1.71%</text>
<text text-anchor="middle" x="1069.5" y="-471" font-family="Arial" font-size="10.00" fill="#ffffff">(0.50%)</text>
<text text-anchor="middle" x="1069.5" y="-460" font-family="Arial" font-size="10.00" fill="#ffffff">8306×</text>
</g>
<!-- CAudioFileIf::writeData(float**, long long)&#45;&gt;CAudioFileSndLib::writeDataIntern(float**, long long) -->
<g id="edge6" class="edge">
<title>CAudioFileIf::writeData(float**, long long)&#45;&gt;CAudioFileSndLib::writeDataIntern(float**, long long)</title>
<path fill="none" stroke="#0d1475" stroke-width="0.5" d="M1053.46,-555.92C1056.05,-544.56 1059,-531.59 1061.67,-519.9"/>
<polygon fill="#0d1475" stroke="#0d1475" stroke-width="0.5" points="1062.9,-520.01 1062.48,-516.32 1060.51,-519.46 1062.9,-520.01"/>
<text text-anchor="middle" x="1074.5" y="-539" font-family="Arial" font-size="10.00" fill="#0d1475">1.71%</text>
<text text-anchor="middle" x="1074.5" y="-528" font-family="Arial" font-size="10.00" fill="#0d1475">8306×</text>
</g>
<!-- mus_file_write -->
<g id="node12" class="node">
<title>mus_file_write</title>
<polygon fill="#0d1274" stroke="#0d1274" points="1112.5,-413 1026.5,-413 1026.5,-350 1112.5,-350 1112.5,-413"/>
<text text-anchor="middle" x="1069.5" y="-401" font-family="Arial" font-size="10.00" fill="#ffffff">MUSI6106Exec</text>
<text text-anchor="middle" x="1069.5" y="-390" font-family="Arial" font-size="10.00" fill="#ffffff">mus_file_write</text>
<text text-anchor="middle" x="1069.5" y="-379" font-family="Arial" font-size="10.00" fill="#ffffff">1.21%</text>
<text text-anchor="middle" x="1069.5" y="-368" font-family="Arial" font-size="10.00" fill="#ffffff">(0.00%)</text>
<text text-anchor="middle" x="1069.5" y="-357" font-family="Arial" font-size="10.00" fill="#ffffff">8311×</text>
</g>
<!-- CAudioFileSndLib::writeDataIntern(float**, long long)&#45;&gt;mus_file_write -->
<g id="edge7" class="edge">
<title>CAudioFileSndLib::writeDataIntern(float**, long long)&#45;&gt;mus_file_write</title>
<path fill="none" stroke="#0d1274" stroke-width="0.5" d="M1069.5,-452.92C1069.5,-441.56 1069.5,-428.59 1069.5,-416.9"/>
<polygon fill="#0d1274" stroke="#0d1274" stroke-width="0.5" points="1070.73,-416.82 1069.5,-413.32 1068.28,-416.82 1070.73,-416.82"/>
<text text-anchor="middle" x="1083.5" y="-436" font-family="Arial" font-size="10.00" fill="#0d1274">1.21%</text>
<text text-anchor="middle" x="1083.5" y="-425" font-family="Arial" font-size="10.00" fill="#0d1274">8311×</text>
</g>
<!-- mus_write_1 -->
<g id="node21" class="node">
<title>mus_write_1</title>
<polygon fill="#0d1274" stroke="#0d1274" points="1112.5,-269 1026.5,-269 1026.5,-206 1112.5,-206 1112.5,-269"/>
<text text-anchor="middle" x="1069.5" y="-257" font-family="Arial" font-size="10.00" fill="#ffffff">MUSI6106Exec</text>
<text text-anchor="middle" x="1069.5" y="-246" font-family="Arial" font-size="10.00" fill="#ffffff">mus_write_1</text>
<text text-anchor="middle" x="1069.5" y="-235" font-family="Arial" font-size="10.00" fill="#ffffff">1.21%</text>
<text text-anchor="middle" x="1069.5" y="-224" font-family="Arial" font-size="10.00" fill="#ffffff">(1.21%)</text>
<text text-anchor="middle" x="1069.5" y="-213" font-family="Arial" font-size="10.00" fill="#ffffff">8311×</text>
</g>
<!-- mus_file_write&#45;&gt;mus_write_1 -->
<g id="edge24" class="edge">
<title>mus_file_write&#45;&gt;mus_write_1</title>
<path fill="none" stroke="#0d1274" stroke-width="0.5" d="M1069.5,-349.69C1069.5,-327.08 1069.5,-296.36 1069.5,-272.95"/>
<polygon fill="#0d1274" stroke="#0d1274" stroke-width="0.5" points="1070.73,-272.75 1069.5,-269.25 1068.28,-272.75 1070.73,-272.75"/>
<text text-anchor="middle" x="1083.5" y="-312.5" font-family="Arial" font-size="10.00" fill="#0d1274">1.21%</text>
<text text-anchor="middle" x="1083.5" y="-301.5" font-family="Arial" font-size="10.00" fill="#0d1274">8311×</text>
</g>
<!-- CFastConv::process(float*, float const*, int) -->
<g id="node13" class="node">
<title>CFastConv::process(float*, float const*, int)</title>
<polygon fill="#fb1c01" stroke="#fb1c01" points="699.5,-619 491.5,-619 491.5,-556 699.5,-556 699.5,-619"/>
<text text-anchor="middle" x="595.5" y="-607" font-family="Arial" font-size="10.00" fill="#ffffff">MUSI6106Exec</text>
<text text-anchor="middle" x="595.5" y="-596" font-family="Arial" font-size="10.00" fill="#ffffff">CFastConv::process(float*, float const*, int)</text>
<text text-anchor="middle" x="595.5" y="-585" font-family="Arial" font-size="10.00" fill="#ffffff">97.31%</text>
<text text-anchor="middle" x="595.5" y="-574" font-family="Arial" font-size="10.00" fill="#ffffff">(0.00%)</text>
<text text-anchor="middle" x="595.5" y="-563" font-family="Arial" font-size="10.00" fill="#ffffff">8306×</text>
</g>
<!-- FreqConvolution::process(float*, float const*, int) -->
<g id="node14" class="node">
<title>FreqConvolution::process(float*, float const*, int)</title>
<polygon fill="#fb1b01" stroke="#fb1b01" points="686,-516 457,-516 457,-453 686,-453 686,-516"/>
<text text-anchor="middle" x="571.5" y="-504" font-family="Arial" font-size="10.00" fill="#ffffff">MUSI6106Exec</text>
<text text-anchor="middle" x="571.5" y="-493" font-family="Arial" font-size="10.00" fill="#ffffff">FreqConvolution::process(float*, float const*, int)</text>
<text text-anchor="middle" x="571.5" y="-482" font-family="Arial" font-size="10.00" fill="#ffffff">97.37%</text>
<text text-anchor="middle" x="571.5" y="-471" font-family="Arial" font-size="10.00" fill="#ffffff">(10.64%)</text>
<text text-anchor="middle" x="571.5" y="-460" font-family="Arial" font-size="10.00" fill="#ffffff">8307×</text>
</g>
<!-- CFastConv::process(float*, float const*, int)&#45;&gt;FreqConvolution::process(float*, float const*, int) -->
<g id="edge8" class="edge">
<title>CFastConv::process(float*, float const*, int)&#45;&gt;FreqConvolution::process(float*, float const*, int)</title>
<path fill="none" stroke="#fb1c01" stroke-width="3.89" d="M588.23,-555.92C586,-546.52 583.5,-536.01 581.14,-526.05"/>
<polygon fill="#fb1c01" stroke="#fb1c01" stroke-width="3.89" points="584.48,-525.15 578.82,-516.32 577.74,-526.75 584.48,-525.15"/>
<text text-anchor="middle" x="603.5" y="-539" font-family="Arial" font-size="10.00" fill="#fb1c01">97.31%</text>
<text text-anchor="middle" x="603.5" y="-528" font-family="Arial" font-size="10.00" fill="#fb1c01">8306×</text>
</g>
<!-- FreqConvolution::process(float*, float const*, int)&#45;&gt;0x00000000001116e0 -->
<g id="edge13" class="edge">
<title>FreqConvolution::process(float*, float const*, int)&#45;&gt;0x00000000001116e0</title>
<path fill="none" stroke="#0d1c77" stroke-width="0.5" d="M686.09,-453.92C687.57,-453.61 689.04,-453.3 690.5,-453 715.62,-447.81 726.15,-458.2 747.5,-444 757.63,-437.26 765.54,-426.8 771.46,-416.41"/>
<polygon fill="#0d1c77" stroke="#0d1c77" stroke-width="0.5" points="772.61,-416.85 773.23,-413.19 770.47,-415.67 772.61,-416.85"/>
<text text-anchor="middle" x="785" y="-436" font-family="Arial" font-size="10.00" fill="#0d1c77">3.55%</text>
<text text-anchor="middle" x="785" y="-425" font-family="Arial" font-size="10.00" fill="#0d1c77">24927×</text>
</g>
<!-- FreqConvolution::process(float*, float const*, int)&#45;&gt;0x00000000001117d0 -->
<g id="edge14" class="edge">
<title>FreqConvolution::process(float*, float const*, int)&#45;&gt;0x00000000001117d0</title>
<path fill="none" stroke="#0d1776" stroke-width="0.5" d="M612.9,-453C624.75,-441.87 636.16,-428.23 642.5,-413 653.26,-387.15 656.18,-374.43 642.5,-350 616.29,-303.21 561.55,-273.69 518.91,-256.86"/>
<polygon fill="#0d1776" stroke="#0d1776" stroke-width="0.5" points="519.31,-255.7 515.6,-255.57 518.42,-257.99 519.31,-255.7"/>
<text text-anchor="middle" x="669" y="-384.5" font-family="Arial" font-size="10.00" fill="#0d1776">2.50%</text>
<text text-anchor="middle" x="669" y="-373.5" font-family="Arial" font-size="10.00" fill="#0d1776">41533×</text>
</g>
<!-- FreqConvolution::process(float*, float const*, int)&#45;&gt;0x0000000000111a20 -->
<g id="edge15" class="edge">
<title>FreqConvolution::process(float*, float const*, int)&#45;&gt;0x0000000000111a20</title>
<path fill="none" stroke="#0d327d" stroke-width="0.5" d="M651.55,-452.88C667.7,-442.76 682.47,-429.68 691.5,-413 703.01,-391.73 709.82,-365.3 713.72,-344.6"/>
<polygon fill="#0d327d" stroke="#0d327d" stroke-width="0.5" points="714.94,-344.73 714.37,-341.06 712.53,-344.28 714.94,-344.73"/>
<text text-anchor="middle" x="701" y="-436" font-family="Arial" font-size="10.00" fill="#0d327d">8.29%</text>
<text text-anchor="middle" x="701" y="-425" font-family="Arial" font-size="10.00" fill="#0d327d">58170×</text>
</g>
<!-- CFft::doFft(float*, float const*) -->
<g id="node15" class="node">
<title>CFft::doFft(float*, float const*)</title>
<polygon fill="#0b9f6c" stroke="#0b9f6c" points="328,-413 179,-413 179,-350 328,-350 328,-413"/>
<text text-anchor="middle" x="253.5" y="-401" font-family="Arial" font-size="10.00" fill="#ffffff">MUSI6106Exec</text>
<text text-anchor="middle" x="253.5" y="-390" font-family="Arial" font-size="10.00" fill="#ffffff">CFft::doFft(float*, float const*)</text>
<text text-anchor="middle" x="253.5" y="-379" font-family="Arial" font-size="10.00" fill="#ffffff">33.71%</text>
<text text-anchor="middle" x="253.5" y="-368" font-family="Arial" font-size="10.00" fill="#ffffff">(0.01%)</text>
<text text-anchor="middle" x="253.5" y="-357" font-family="Arial" font-size="10.00" fill="#ffffff">8315×</text>
</g>
<!-- FreqConvolution::process(float*, float const*, int)&#45;&gt;CFft::doFft(float*, float const*) -->
<g id="edge16" class="edge">
<title>FreqConvolution::process(float*, float const*, int)&#45;&gt;CFft::doFft(float*, float const*)</title>
<path fill="none" stroke="#0b9f6c" stroke-width="1.35" d="M461.15,-452.99C422.15,-441.69 377.96,-428.31 333.94,-413.47"/>
<polygon fill="#0b9f6c" stroke="#0b9f6c" stroke-width="1.35" points="334.44,-411.49 328.29,-411.55 333.13,-415.34 334.44,-411.49"/>
<text text-anchor="middle" x="447.5" y="-436" font-family="Arial" font-size="10.00" fill="#0b9f6c">33.69%</text>
<text text-anchor="middle" x="447.5" y="-425" font-family="Arial" font-size="10.00" fill="#0b9f6c">8310×</text>
</g>
<!-- CFft::doInvFft(float*, float const*) -->
<g id="node17" class="node">
<title>CFft::doInvFft(float*, float const*)</title>
<polygon fill="#0b9f6b" stroke="#0b9f6b" points="169.5,-413 7.5,-413 7.5,-350 169.5,-350 169.5,-413"/>
<text text-anchor="middle" x="88.5" y="-401" font-family="Arial" font-size="10.00" fill="#ffffff">MUSI6106Exec</text>
<text text-anchor="middle" x="88.5" y="-390" font-family="Arial" font-size="10.00" fill="#ffffff">CFft::doInvFft(float*, float const*)</text>
<text text-anchor="middle" x="88.5" y="-379" font-family="Arial" font-size="10.00" fill="#ffffff">33.78%</text>
<text text-anchor="middle" x="88.5" y="-368" font-family="Arial" font-size="10.00" fill="#ffffff">(0.01%)</text>
<text text-anchor="middle" x="88.5" y="-357" font-family="Arial" font-size="10.00" fill="#ffffff">8310×</text>
</g>
<!-- FreqConvolution::process(float*, float const*, int)&#45;&gt;CFft::doInvFft(float*, float const*) -->
<g id="edge17" class="edge">
<title>FreqConvolution::process(float*, float const*, int)&#45;&gt;CFft::doInvFft(float*, float const*)</title>
<path fill="none" stroke="#0b9f6b" stroke-width="1.35" d="M456.87,-468.93C378.45,-457.59 272.37,-439.54 175.65,-413.28"/>
<polygon fill="#0b9f6b" stroke="#0b9f6b" stroke-width="1.35" points="176.02,-411.27 169.89,-411.7 174.94,-415.19 176.02,-411.27"/>
<text text-anchor="middle" x="321.5" y="-436" font-family="Arial" font-size="10.00" fill="#0b9f6b">33.78%</text>
<text text-anchor="middle" x="321.5" y="-425" font-family="Arial" font-size="10.00" fill="#0b9f6b">8310×</text>
</g>
<!-- FreqConvolution::multiplySpectra(float*, float const*, float const*) -->
<g id="node19" class="node">
<title>FreqConvolution::multiplySpectra(float*, float const*, float const*)</title>
<polygon fill="#0d2078" stroke="#0d2078" points="638,-413 337,-413 337,-350 638,-350 638,-413"/>
<text text-anchor="middle" x="487.5" y="-401" font-family="Arial" font-size="10.00" fill="#ffffff">MUSI6106Exec</text>
<text text-anchor="middle" x="487.5" y="-390" font-family="Arial" font-size="10.00" fill="#ffffff">FreqConvolution::multiplySpectra(float*, float const*, float const*)</text>
<text text-anchor="middle" x="487.5" y="-379" font-family="Arial" font-size="10.00" fill="#ffffff">4.38%</text>
<text text-anchor="middle" x="487.5" y="-368" font-family="Arial" font-size="10.00" fill="#ffffff">(4.38%)</text>
<text text-anchor="middle" x="487.5" y="-357" font-family="Arial" font-size="10.00" fill="#ffffff">41550×</text>
</g>
<!-- FreqConvolution::process(float*, float const*, int)&#45;&gt;FreqConvolution::multiplySpectra(float*, float const*, float const*) -->
<g id="edge18" class="edge">
<title>FreqConvolution::process(float*, float const*, int)&#45;&gt;FreqConvolution::multiplySpectra(float*, float const*, float const*)</title>
<path fill="none" stroke="#0d2078" stroke-width="0.5" d="M546.07,-452.92C536.45,-441.36 525.46,-428.14 515.61,-416.3"/>
<polygon fill="#0d2078" stroke="#0d2078" stroke-width="0.5" points="516.31,-415.23 513.13,-413.32 514.43,-416.8 516.31,-415.23"/>
<text text-anchor="middle" x="554" y="-436" font-family="Arial" font-size="10.00" fill="#0d2078">4.38%</text>
<text text-anchor="middle" x="554" y="-425" font-family="Arial" font-size="10.00" fill="#0d2078">41550×</text>
</g>
<!-- CFft::doFft(float*, float const*)&#45;&gt;0x00000000001117d0 -->
<g id="edge9" class="edge">
<title>CFft::doFft(float*, float const*)&#45;&gt;0x00000000001117d0</title>
<path fill="none" stroke="#0d1776" stroke-width="0.5" d="M328.26,-351.34C329.68,-350.88 331.1,-350.44 332.5,-350 349.08,-344.86 355.63,-349.94 370.5,-341 398.86,-323.95 423.07,-294.97 439.22,-272.17"/>
<polygon fill="#0d1776" stroke="#0d1776" stroke-width="0.5" points="440.34,-272.71 441.34,-269.14 438.33,-271.3 440.34,-272.71"/>
<text text-anchor="middle" x="452" y="-312.5" font-family="Arial" font-size="10.00" fill="#0d1776">2.37%</text>
<text text-anchor="middle" x="452" y="-301.5" font-family="Arial" font-size="10.00" fill="#0d1776">16630×</text>
</g>
<!-- LaszloFft::realfft_split(float*, long) -->
<g id="node16" class="node">
<title>LaszloFft::realfft_split(float*, long)</title>
<polygon fill="#0b9c77" stroke="#0b9c77" points="337,-269 174,-269 174,-206 337,-206 337,-269"/>
<text text-anchor="middle" x="255.5" y="-257" font-family="Arial" font-size="10.00" fill="#ffffff">MUSI6106Exec</text>
<text text-anchor="middle" x="255.5" y="-246" font-family="Arial" font-size="10.00" fill="#ffffff">LaszloFft::realfft_split(float*, long)</text>
<text text-anchor="middle" x="255.5" y="-235" font-family="Arial" font-size="10.00" fill="#ffffff">31.34%</text>
<text text-anchor="middle" x="255.5" y="-224" font-family="Arial" font-size="10.00" fill="#ffffff">(26.01%)</text>
<text text-anchor="middle" x="255.5" y="-213" font-family="Arial" font-size="10.00" fill="#ffffff">8315×</text>
</g>
<!-- CFft::doFft(float*, float const*)&#45;&gt;LaszloFft::realfft_split(float*, long) -->
<g id="edge10" class="edge">
<title>CFft::doFft(float*, float const*)&#45;&gt;LaszloFft::realfft_split(float*, long)</title>
<path fill="none" stroke="#0b9c77" stroke-width="1.25" d="M253.93,-349.69C254.24,-327.73 254.66,-298.13 254.99,-274.99"/>
<polygon fill="#0b9c77" stroke="#0b9c77" stroke-width="1.25" points="256.95,-274.88 255.07,-269.25 253.03,-274.82 256.95,-274.88"/>
<text text-anchor="middle" x="272.5" y="-312.5" font-family="Arial" font-size="10.00" fill="#0b9c77">31.34%</text>
<text text-anchor="middle" x="272.5" y="-301.5" font-family="Arial" font-size="10.00" fill="#0b9c77">8315×</text>
</g>
<!-- LaszloFft::realfft_split(float*, long)&#45;&gt;0x00000000001116a0 -->
<g id="edge20" class="edge">
<title>LaszloFft::realfft_split(float*, long)&#45;&gt;0x00000000001116a0</title>
<path fill="none" stroke="#0d247a" stroke-width="0.5" d="M229.46,-205.92C219.54,-194.26 208.17,-180.92 198.02,-169"/>
<polygon fill="#0d247a" stroke="#0d247a" stroke-width="0.5" points="198.95,-168.19 195.74,-166.32 197.08,-169.78 198.95,-168.19"/>
<text text-anchor="middle" x="242" y="-189" font-family="Arial" font-size="10.00" fill="#0d247a">5.33%</text>
<text text-anchor="middle" x="242" y="-178" font-family="Arial" font-size="10.00" fill="#0d247a">8348260×</text>
</g>
<!-- CFft::doInvFft(float*, float const*)&#45;&gt;0x00000000001117d0 -->
<g id="edge11" class="edge">
<title>CFft::doInvFft(float*, float const*)&#45;&gt;0x00000000001117d0</title>
<path fill="none" stroke="#0d1776" stroke-width="0.5" d="M169.82,-351.05C171.39,-350.68 172.95,-350.33 174.5,-350 200.01,-344.59 268.86,-353.93 291.5,-341 321.16,-324.06 307.98,-298.22 335.5,-278 354.83,-263.8 379.42,-254.6 401.67,-248.69"/>
<polygon fill="#0d1776" stroke="#0d1776" stroke-width="0.5" points="402.14,-249.83 405.22,-247.77 401.52,-247.46 402.14,-249.83"/>
<text text-anchor="middle" x="352" y="-312.5" font-family="Arial" font-size="10.00" fill="#0d1776">2.37%</text>
<text text-anchor="middle" x="352" y="-301.5" font-family="Arial" font-size="10.00" fill="#0d1776">16620×</text>
</g>
<!-- LaszloFft::irealfft_split(float*, long) -->
<g id="node18" class="node">
<title>LaszloFft::irealfft_split(float*, long)</title>
<polygon fill="#0b9c77" stroke="#0b9c77" points="165,-269 0,-269 0,-206 165,-206 165,-269"/>
<text text-anchor="middle" x="82.5" y="-257" font-family="Arial" font-size="10.00" fill="#ffffff">MUSI6106Exec</text>
<text text-anchor="middle" x="82.5" y="-246" font-family="Arial" font-size="10.00" fill="#ffffff">LaszloFft::irealfft_split(float*, long)</text>
<text text-anchor="middle" x="82.5" y="-235" font-family="Arial" font-size="10.00" fill="#ffffff">31.40%</text>
<text text-anchor="middle" x="82.5" y="-224" font-family="Arial" font-size="10.00" fill="#ffffff">(26.08%)</text>
<text text-anchor="middle" x="82.5" y="-213" font-family="Arial" font-size="10.00" fill="#ffffff">8310×</text>
</g>
<!-- CFft::doInvFft(float*, float const*)&#45;&gt;LaszloFft::irealfft_split(float*, long) -->
<g id="edge12" class="edge">
<title>CFft::doInvFft(float*, float const*)&#45;&gt;LaszloFft::irealfft_split(float*, long)</title>
<path fill="none" stroke="#0b9c77" stroke-width="1.26" d="M87.2,-349.69C86.27,-327.73 85.02,-298.13 84.04,-274.99"/>
<polygon fill="#0b9c77" stroke="#0b9c77" stroke-width="1.26" points="85.99,-274.76 83.8,-269.25 82.08,-274.93 85.99,-274.76"/>
<text text-anchor="middle" x="104.5" y="-312.5" font-family="Arial" font-size="10.00" fill="#0b9c77">31.40%</text>
<text text-anchor="middle" x="104.5" y="-301.5" font-family="Arial" font-size="10.00" fill="#0b9c77">8310×</text>
</g>
<!-- LaszloFft::irealfft_split(float*, long)&#45;&gt;0x00000000001116a0 -->
<g id="edge19" class="edge">
<title>LaszloFft::irealfft_split(float*, long)&#45;&gt;0x00000000001116a0</title>
<path fill="none" stroke="#0d247a" stroke-width="0.5" d="M108.84,-205.92C118.88,-194.26 130.38,-180.92 140.64,-169"/>
<polygon fill="#0d247a" stroke="#0d247a" stroke-width="0.5" points="141.59,-169.77 142.95,-166.32 139.74,-168.17 141.59,-169.77"/>
<text text-anchor="middle" x="156" y="-189" font-family="Arial" font-size="10.00" fill="#0d247a">5.32%</text>
<text text-anchor="middle" x="156" y="-178" font-family="Arial" font-size="10.00" fill="#0d247a">8343240×</text>
</g>
<!-- main -->
<g id="node20" class="node">
<title>main</title>
<polygon fill="#ff0000" stroke="#ff0000" points="859.5,-722 773.5,-722 773.5,-659 859.5,-659 859.5,-722"/>
<text text-anchor="middle" x="816.5" y="-710" font-family="Arial" font-size="10.00" fill="#ffffff">MUSI6106Exec</text>
<text text-anchor="middle" x="816.5" y="-699" font-family="Arial" font-size="10.00" fill="#ffffff">main</text>
<text text-anchor="middle" x="816.5" y="-688" font-family="Arial" font-size="10.00" fill="#ffffff">99.96%</text>
<text text-anchor="middle" x="816.5" y="-677" font-family="Arial" font-size="10.00" fill="#ffffff">(0.00%)</text>
<text text-anchor="middle" x="816.5" y="-666" font-family="Arial" font-size="10.00" fill="#ffffff">1×</text>
</g>
<!-- main&#45;&gt;CAudioFileIf::readData(float**, long long&amp;) -->
<g id="edge21" class="edge">
<title>main&#45;&gt;CAudioFileIf::readData(float**, long long&amp;)</title>
<path fill="none" stroke="#0d1074" stroke-width="0.5" d="M816.5,-658.92C816.5,-647.56 816.5,-634.59 816.5,-622.9"/>
<polygon fill="#0d1074" stroke="#0d1074" stroke-width="0.5" points="817.73,-622.82 816.5,-619.32 815.28,-622.82 817.73,-622.82"/>
<text text-anchor="middle" x="830.5" y="-642" font-family="Arial" font-size="10.00" fill="#0d1074">0.83%</text>
<text text-anchor="middle" x="830.5" y="-631" font-family="Arial" font-size="10.00" fill="#0d1074">8306×</text>
</g>
<!-- main&#45;&gt;CAudioFileIf::writeData(float**, long long) -->
<g id="edge22" class="edge">
<title>main&#45;&gt;CAudioFileIf::writeData(float**, long long)</title>
<path fill="none" stroke="#0d1475" stroke-width="0.5" d="M859.76,-670.5C891.65,-656.5 935.81,-637.11 973.17,-620.7"/>
<polygon fill="#0d1475" stroke="#0d1475" stroke-width="0.5" points="974.05,-621.65 976.76,-619.12 973.07,-619.41 974.05,-621.65"/>
<text text-anchor="middle" x="966.5" y="-642" font-family="Arial" font-size="10.00" fill="#0d1475">1.72%</text>
<text text-anchor="middle" x="966.5" y="-631" font-family="Arial" font-size="10.00" fill="#0d1475">8306×</text>
</g>
<!-- main&#45;&gt;CFastConv::process(float*, float const*, int) -->
<g id="edge23" class="edge">
<title>main&#45;&gt;CFastConv::process(float*, float const*, int)</title>
<path fill="none" stroke="#fb1c01" stroke-width="3.89" d="M773.36,-669.79C744.54,-656.62 705.84,-638.93 671.89,-623.41"/>
<polygon fill="#fb1c01" stroke="#fb1c01" stroke-width="3.89" points="672.9,-620.06 662.46,-619.1 670.02,-626.37 672.9,-620.06"/>
<text text-anchor="middle" x="743.5" y="-642" font-family="Arial" font-size="10.00" fill="#fb1c01">97.31%</text>
<text text-anchor="middle" x="743.5" y="-631" font-family="Arial" font-size="10.00" fill="#fb1c01">8306×</text>
</g>
</g>
</svg>
